<svg width="375" height="154" viewBox="0 0 375 154" fill="none" xmlns="http://www.w3.org/2000/svg">
<path d="M180.381 27.8297H142.258L139.844 37.743H177.967L172.376 61.1255H134.25L128.659 84.7606H96L116.332 0H187.114L180.381 27.8297Z" fill="#896CFE"/>
<path d="M251.047 0C265.153 0 269.348 0.762084 273.54 3.68515C276.718 5.9714 278.37 9.91128 278.37 14.9953C278.37 23.1277 274.177 32.279 268.331 36.5989C265.281 38.8851 261.343 40.4114 254.987 41.8082L254.86 42.3155C260.833 43.205 262.103 43.5871 264.136 44.7313C267.822 47.0175 269.728 50.4479 269.728 55.4067C269.728 66.0822 263.247 77.1376 254.35 81.5848C249.776 83.7458 243.55 84.7626 233.129 84.7626H177.85L198.182 0.00208755H251.047V0Z" fill="#896CFE"/>
<path d="M245.954 41.0133C242.893 40.5247 240.224 38.7312 238.598 36.1484L234.42 44.9239C237.205 47.4691 240.707 49.1978 244.546 49.8117C246.977 50.2 249.261 48.5464 249.649 46.1161C250.04 43.6858 248.384 41.4016 245.954 41.0133Z" fill="#E2F163"/>
<path d="M213.018 59.2777C214.717 58.6451 216.438 57.7327 218.052 56.4758C217.334 56.0122 216.684 55.5195 216.108 54.9954C214.77 53.7803 213.818 52.4252 213.181 51.0827C212.922 50.5378 212.717 49.9991 212.55 49.4688C212.12 49.8007 211.68 50.0847 211.222 50.3311C210.264 50.8468 209.239 51.1996 208.182 51.4209C207.128 51.6423 206.046 51.732 205.027 51.732C203.578 51.732 202.257 51.5504 201.336 51.3708C200.875 51.2811 200.516 51.1934 200.286 51.1328C200.171 51.1036 200.092 51.0785 200.046 51.066L200.008 51.0556H200.006C197.672 50.3144 195.173 51.5963 194.417 53.9306C193.659 56.2711 194.945 58.7829 197.286 59.5408C197.423 59.5846 198.273 59.854 199.63 60.1191C200.987 60.3822 202.85 60.6432 205.025 60.6453C206.387 60.6453 207.869 60.543 209.427 60.259C210.594 60.0461 211.801 59.7329 213.018 59.2777Z" fill="#E2F163"/>
<path d="M246.434 70.1369H242.033C242.108 69.8467 242.156 69.5461 242.173 69.235C242.177 69.1661 242.187 68.9259 242.187 68.5439C242.187 67.6482 242.131 65.9716 241.768 63.8586C241.494 62.2739 241.047 60.4449 240.298 58.5198C239.736 57.0771 239.001 55.5801 238.032 54.1102C237.306 53.0099 236.448 51.9241 235.439 50.9032C233.927 49.3706 232.069 47.9822 229.867 46.8986C229.846 46.8881 229.823 46.8777 229.8 46.8672L236.953 31.8427L237.287 31.0472C238.713 27.6418 237.107 23.727 233.702 22.301C233.224 22.1005 232.735 21.9627 232.245 21.8792C231.825 21.7226 231.393 21.6328 230.961 21.6057C230.858 21.5848 230.75 21.5639 230.631 21.541C229.651 21.3572 228.15 21.1484 226.277 21.1484C223.782 21.1464 220.605 21.5222 217.078 22.7937C213.552 24.0611 209.697 26.2304 205.866 29.6922C204.039 31.3395 203.895 34.1582 205.542 35.9851C207.19 37.812 210.008 37.9561 211.835 36.3087C214.852 33.5903 217.652 32.0619 220.099 31.1767C221.049 30.8342 221.947 30.592 222.786 30.4208L216.585 43.5057C216.581 43.5203 216.577 43.5391 216.571 43.5663C216.554 43.6435 216.527 43.773 216.5 43.9442C216.445 44.2887 216.387 44.8002 216.387 45.412C216.387 46.101 216.46 46.9111 216.683 47.7504C216.907 48.5919 217.272 49.4583 217.869 50.3081C218.268 50.8739 218.771 51.4356 219.421 51.9763C220.133 52.5693 221.028 53.1393 222.16 53.6508C223.258 53.868 224.219 54.1624 225.069 54.5069C226.052 54.9078 226.887 55.3796 227.618 55.9037C228.894 56.8203 229.864 57.8997 230.641 59.0898C231.222 59.9814 231.685 60.9355 232.048 61.8918C232.593 63.3262 232.911 64.771 233.08 65.9695C233.251 67.1658 233.276 68.1117 233.276 68.5459C233.276 68.6545 233.274 68.7297 233.274 68.7714L233.272 68.8049H233.274C233.253 69.2663 233.303 69.7131 233.414 70.139H210.823C209.9 70.139 209.152 70.8865 209.152 71.8093C209.152 72.7322 209.9 73.4797 210.823 73.4797H246.436C247.359 73.4797 248.106 72.7322 248.106 71.8093C248.104 70.8844 247.357 70.1369 246.434 70.1369Z" fill="#E2F163"/>
<path d="M202.72 70.1328H198.697C197.774 70.1328 197.026 70.8803 197.026 71.8031C197.026 72.726 197.774 73.4735 198.697 73.4735H202.72C203.643 73.4735 204.39 72.726 204.39 71.8031C204.39 70.8803 203.643 70.1328 202.72 70.1328Z" fill="#E2F163"/>
<path d="M237.719 21.3738C240.655 21.3738 243.035 18.9938 243.035 16.058C243.035 13.1222 240.655 10.7422 237.719 10.7422C234.783 10.7422 232.403 13.1222 232.403 16.058C232.403 18.9938 234.783 21.3738 237.719 21.3738Z" fill="#E2F163"/>
<path d="M107.448 93.8525L105.989 102.282H90.751L89.5623 108.982H100.748L99.3426 117.034H88.1574L85.5096 131.947H74.8647L81.6191 93.8525H107.448ZM122.499 93.8525L115.799 131.947H105.154L111.908 93.8525H122.499ZM157.223 93.8525L155.71 102.282H145.606L140.364 131.947H129.719L134.961 102.282H124.91L126.423 93.8525H157.223ZM185.89 103.849C185.493 106.082 184.557 107.938 183.08 109.415C181.639 110.856 179.874 111.9 177.784 112.549C179.549 112.837 180.99 113.701 182.107 115.142C183.224 116.547 183.782 118.222 183.782 120.168C183.782 120.744 183.728 121.302 183.62 121.843C183.296 123.752 182.503 125.481 181.242 127.03C180.018 128.543 178.397 129.75 176.379 130.65C174.362 131.515 172.093 131.947 169.571 131.947H155.522L162.222 94.2848H175.731C179.117 94.2848 181.675 95.0053 183.404 96.4462C185.169 97.8871 186.052 99.7604 186.052 102.066C186.052 102.642 185.998 103.237 185.89 103.849ZM180.81 104.443C180.882 104.119 180.918 103.669 180.918 103.093C180.918 101.544 180.378 100.337 179.297 99.4722C178.217 98.6076 176.65 98.1753 174.596 98.1753H166.437L164.221 110.657H172.489C174.758 110.657 176.632 110.117 178.108 109.036C179.585 107.92 180.486 106.389 180.81 104.443ZM178.757 121.356C178.865 120.852 178.919 120.384 178.919 119.951C178.919 118.294 178.307 116.98 177.082 116.007C175.857 115.034 174.182 114.548 172.057 114.548H163.519L161.141 128.057H169.841C172.255 128.057 174.254 127.462 175.839 126.274C177.424 125.085 178.397 123.446 178.757 121.356ZM205.844 132.326C202.71 132.326 199.954 131.677 197.576 130.38C195.199 129.047 193.344 127.192 192.011 124.815C190.714 122.437 190.065 119.717 190.065 116.655C190.065 112.405 191.02 108.55 192.929 105.092C194.875 101.598 197.54 98.8598 200.926 96.8785C204.313 94.8612 208.095 93.8525 212.274 93.8525C215.444 93.8525 218.218 94.519 220.595 95.8518C223.009 97.1487 224.864 98.9859 226.161 101.363C227.458 103.705 228.106 106.407 228.106 109.469C228.106 113.755 227.133 117.646 225.188 121.14C223.279 124.598 220.631 127.336 217.245 129.354C213.859 131.335 210.058 132.326 205.844 132.326ZM206.546 127.895C209.716 127.895 212.544 127.084 215.03 125.463C217.551 123.806 219.515 121.591 220.919 118.817C222.324 116.043 223.027 113.035 223.027 109.793C223.027 106.227 222 103.417 219.947 101.363C217.893 99.3101 215.102 98.2834 211.571 98.2834C208.401 98.2834 205.555 99.1119 203.034 100.769C200.548 102.39 198.603 104.587 197.198 107.361C195.829 110.099 195.145 113.089 195.145 116.331C195.145 119.897 196.153 122.725 198.171 124.815C200.224 126.868 203.016 127.895 206.546 127.895ZM249.565 94.2848C254.933 94.2848 259.093 95.5817 262.047 98.1753C265.037 100.769 266.532 104.371 266.532 108.982C266.532 110.423 266.406 111.828 266.154 113.197C265.47 117.052 264.065 120.402 261.939 123.248C259.85 126.057 257.166 128.219 253.888 129.732C250.646 131.209 246.972 131.947 242.865 131.947H231.139L237.84 94.2848H249.565ZM243.567 128.165C248.394 128.165 252.321 126.85 255.347 124.22C258.373 121.555 260.3 117.88 261.129 113.197C261.345 111.9 261.453 110.675 261.453 109.523C261.453 105.956 260.39 103.201 258.265 101.255C256.139 99.274 253.005 98.2834 248.863 98.2834H242.054L236.759 128.165H243.567ZM302.413 94.2848L285.987 117.736L283.447 131.947H278.53L281.069 117.736L272.856 94.2848H278.368L284.257 113.251L296.848 94.2848H302.413Z" fill="#E2F163"/>
</svg>
