<svg width="277" height="134" viewBox="0 0 277 134" fill="none" xmlns="http://www.w3.org/2000/svg">
<path d="M79.0798 89.68L77.9598 95.96H66.6398L65.7598 101H74.1998L73.1998 106.92H64.7198L62.7598 118H54.8798L59.8398 89.68H79.0798ZM90.1808 89.68L85.2208 118H77.3408L82.3008 89.68H90.1808ZM115.847 89.68L114.727 95.96H107.127L103.247 118H95.4073L99.2473 95.96H91.7273L92.8073 89.68H115.847ZM136.914 96.84C136.594 98.6533 135.847 100.12 134.674 101.24C133.5 102.36 132.127 103.08 130.554 103.4C132.02 103.72 133.167 104.387 133.994 105.4C134.847 106.387 135.274 107.6 135.274 109.04C135.274 109.467 135.234 109.92 135.154 110.4C134.754 112.693 133.647 114.533 131.834 115.92C130.047 117.307 127.674 118 124.714 118H114.234L119.194 89.8H129.514C131.994 89.8 133.86 90.2933 135.114 91.28C136.394 92.2667 137.034 93.6267 137.034 95.36C137.034 95.8133 136.994 96.3067 136.914 96.84ZM133.074 97.44C133.127 97.2 133.154 96.8533 133.154 96.4C133.154 95.28 132.754 94.4 131.954 93.76C131.154 93.12 129.914 92.8 128.234 92.8H122.314L120.674 102.16H126.754C128.54 102.16 129.967 101.747 131.034 100.92C132.127 100.093 132.807 98.9333 133.074 97.44ZM131.514 109.92C131.567 109.68 131.594 109.333 131.594 108.88C131.594 107.627 131.127 106.653 130.194 105.96C129.287 105.24 127.98 104.88 126.274 104.88H120.194L118.394 114.96H124.514C126.46 114.96 128.047 114.52 129.274 113.64C130.5 112.76 131.247 111.52 131.514 109.92ZM155.774 89.44C158.174 89.44 160.268 89.9333 162.054 90.92C163.841 91.88 165.214 93.2533 166.174 95.04C167.134 96.8 167.614 98.8533 167.614 101.2C167.614 102.32 167.521 103.4 167.334 104.44C166.854 107.133 165.868 109.533 164.374 111.64C162.908 113.747 161.054 115.387 158.814 116.56C156.601 117.733 154.174 118.32 151.534 118.32C149.081 118.32 146.961 117.84 145.174 116.88C143.388 115.893 142.014 114.52 141.054 112.76C140.121 110.973 139.654 108.92 139.654 106.6C139.654 105.453 139.748 104.36 139.934 103.32C140.414 100.627 141.388 98.2267 142.854 96.12C144.348 94.0133 146.214 92.3733 148.454 91.2C150.694 90.0267 153.134 89.44 155.774 89.44ZM155.454 92.84C153.534 92.84 151.734 93.28 150.054 94.16C148.401 95.04 147.001 96.3067 145.854 97.96C144.708 99.6133 143.934 101.533 143.534 103.72C143.374 104.6 143.294 105.453 143.294 106.28C143.294 108.947 144.068 111.053 145.614 112.6C147.161 114.147 149.241 114.92 151.854 114.92C153.748 114.92 155.521 114.48 157.174 113.6C158.854 112.693 160.268 111.413 161.414 109.76C162.588 108.107 163.361 106.187 163.734 104C163.894 103.12 163.974 102.267 163.974 101.44C163.974 98.7733 163.201 96.68 161.654 95.16C160.108 93.6133 158.041 92.84 155.454 92.84ZM196.02 103.88C195.514 106.733 194.5 109.227 192.98 111.36C191.46 113.467 189.487 115.107 187.06 116.28C184.634 117.427 181.86 118 178.74 118H169.78L174.74 89.8H183.7C187.78 89.8 190.9 90.76 193.06 92.68C195.22 94.5733 196.3 97.2267 196.3 100.64C196.3 101.76 196.207 102.84 196.02 103.88ZM179.02 114.72C182.727 114.72 185.714 113.773 187.98 111.88C190.274 109.96 191.714 107.293 192.3 103.88C192.46 102.947 192.54 102.067 192.54 101.24C192.54 98.6 191.714 96.5733 190.06 95.16C188.434 93.72 186.034 93 182.86 93H177.82L173.98 114.72H179.02ZM223.452 89.8L211.132 107.32L209.252 118H205.572L207.452 107.32L201.252 89.8H205.492L209.972 103.44L219.292 89.8H223.452Z" fill="#E2F163"/>
<path d="M133.157 20.6012H104.936L103.149 27.9396H131.37L127.231 45.2487H99.0086L94.8695 62.7448H70.6934L85.7443 0H138.141L133.157 20.6012Z" fill="#896CFE"/>
<path d="M185.469 0C195.911 0 199.016 0.56414 202.119 2.72797C204.472 4.42039 205.694 7.33692 205.694 11.1004C205.694 17.1205 202.591 23.8948 198.263 27.0927C196.005 28.7851 193.09 29.9149 188.385 30.9489L188.291 31.3245C192.713 31.9829 193.652 32.2658 195.158 33.1127C197.886 34.8052 199.297 37.3446 199.297 41.0154C199.297 48.918 194.499 57.1019 187.914 60.394C184.527 61.9937 179.918 62.7464 172.204 62.7464H131.283L146.334 0.00154533H185.469V0Z" fill="#896CFE"/>
<path d="M181.697 30.359C179.431 29.9974 177.456 28.6697 176.252 26.7578L173.159 33.2539C175.221 35.138 177.813 36.4178 180.655 36.8722C182.454 37.1596 184.145 35.9355 184.433 34.1365C184.722 32.3374 183.496 30.6465 181.697 30.359Z" fill="#E2F163"/>
<path d="M157.316 43.8803C158.575 43.412 159.848 42.7366 161.043 41.8061C160.511 41.463 160.031 41.0983 159.604 40.7103C158.613 39.8108 157.908 38.8077 157.437 37.8139C157.245 37.4105 157.094 37.0117 156.97 36.6191C156.652 36.8649 156.326 37.0751 155.987 37.2575C155.278 37.6392 154.519 37.9004 153.737 38.0643C152.956 38.2281 152.156 38.2946 151.401 38.2946C150.329 38.2946 149.35 38.1601 148.669 38.0272C148.327 37.9607 148.061 37.8958 147.891 37.851C147.806 37.8293 147.748 37.8108 147.714 37.8015L147.686 37.7938H147.684C145.956 37.2451 144.106 38.1941 143.547 39.9221C142.986 41.6547 143.938 43.514 145.67 44.0751C145.772 44.1075 146.401 44.3069 147.406 44.5032C148.411 44.6979 149.789 44.8911 151.4 44.8927C152.408 44.8927 153.505 44.817 154.658 44.6068C155.522 44.4491 156.415 44.2173 157.316 43.8803Z" fill="#E2F163"/>
<path d="M182.053 51.9185H178.795C178.851 51.7037 178.886 51.4811 178.898 51.2508C178.902 51.1998 178.909 51.0221 178.909 50.7392C178.909 50.0762 178.868 48.8351 178.599 47.2709C178.396 46.0978 178.065 44.7439 177.511 43.3188C177.095 42.2508 176.551 41.1426 175.834 40.0546C175.296 39.24 174.66 38.4363 173.914 37.6805C172.795 36.5461 171.419 35.5182 169.789 34.7161C169.773 34.7083 169.756 34.7006 169.739 34.6929L175.034 23.5708L175.282 22.982C176.337 20.4611 175.149 17.5631 172.628 16.5075C172.274 16.3591 171.912 16.2571 171.549 16.1953C171.239 16.0793 170.919 16.0129 170.599 15.9928C170.523 15.9773 170.443 15.9619 170.354 15.9449C169.63 15.8089 168.518 15.6543 167.132 15.6543C165.285 15.6528 162.933 15.931 160.322 16.8722C157.712 17.8104 154.858 19.4163 152.022 21.9789C150.67 23.1983 150.563 25.2849 151.783 26.6373C153.002 27.9897 155.089 28.0963 156.441 26.8768C158.674 24.8645 160.747 23.7331 162.558 23.0778C163.262 22.8243 163.926 22.645 164.548 22.5183L159.957 32.2045C159.954 32.2153 159.951 32.2292 159.946 32.2493C159.934 32.3065 159.914 32.4023 159.894 32.5291C159.854 32.7841 159.81 33.1628 159.81 33.6156C159.81 34.1257 159.865 34.7254 160.03 35.3467C160.195 35.9696 160.466 36.611 160.908 37.24C161.203 37.6589 161.575 38.0746 162.056 38.475C162.583 38.9139 163.246 39.3358 164.084 39.7145C164.897 39.8753 165.608 40.0932 166.237 40.3482C166.965 40.645 167.583 40.9943 168.124 41.3822C169.069 42.0607 169.787 42.8598 170.362 43.7408C170.792 44.4008 171.135 45.1071 171.404 45.815C171.807 46.8768 172.042 47.9463 172.167 48.8335C172.294 49.7191 172.313 50.4193 172.313 50.7408C172.313 50.8211 172.311 50.8768 172.311 50.9077L172.31 50.9324H172.311C172.296 51.274 172.333 51.6048 172.415 51.9201H155.691C155.008 51.9201 154.455 52.4734 154.455 53.1565C154.455 53.8397 155.008 54.393 155.691 54.393H182.055C182.738 54.393 183.291 53.8397 183.291 53.1565C183.289 52.4718 182.736 51.9185 182.053 51.9185Z" fill="#E2F163"/>
<path d="M149.693 51.916H146.715C146.032 51.916 145.479 52.4693 145.479 53.1525C145.479 53.8356 146.032 54.389 146.715 54.389H149.693C150.376 54.389 150.93 53.8356 150.93 53.1525C150.93 52.4693 150.376 51.916 149.693 51.916Z" fill="#E2F163"/>
<path d="M175.602 15.8213C177.775 15.8213 179.537 14.0595 179.537 11.8862C179.537 9.71296 177.775 7.95117 175.602 7.95117C173.429 7.95117 171.667 9.71296 171.667 11.8862C171.667 14.0595 173.429 15.8213 175.602 15.8213Z" fill="#E2F163"/>
</svg>
